<?xml version="1.0" standalone="no"?>
<!DOCTYPE svg PUBLIC "-//W3C//DTD SVG 20010904//EN"
 "http://www.w3.org/TR/2001/REC-SVG-20010904/DTD/svg10.dtd">
<svg version="1.0" xmlns="http://www.w3.org/2000/svg"
 width="811.000000pt" height="811.000000pt" viewBox="0 0 811.000000 811.000000"
 preserveAspectRatio="xMidYMid meet">

<g transform="translate(0.000000,811.000000) scale(0.100000,-0.100000)"
fill="#5E7AF7" stroke="none">
<path d="M10 4055 l0 -4045 4045 0 4045 0 0 4045 0 4045 -4045 0 -4045 0 0
-4045z m4110 1136 l0 -559 -297 -4 c-290 -4 -300 -5 -379 -31 -294 -97 -464
-415 -376 -703 60 -197 225 -352 423 -399 49 -11 129 -15 347 -15 l282 0 0
-560 0 -560 -307 0 c-333 0 -443 10 -611 55 -584 155 -1055 613 -1216 1180
-202 712 85 1476 704 1878 225 145 487 239 745 266 44 5 216 9 383 10 l302 1
0 -559z m1446 -305 c313 -66 518 -263 597 -574 19 -75 22 -112 21 -267 -1
-212 -16 -283 -90 -435 -39 -79 -61 -109 -133 -181 -72 -72 -102 -94 -181
-133 -153 -75 -224 -89 -430 -90 -151 0 -187 3 -260 22 -286 77 -473 262 -552
550 -19 67 -22 104 -22 277 0 190 1 204 28 290 45 146 98 238 196 336 71 71
101 93 180 131 150 74 280 100 465 93 61 -2 142 -11 181 -19z"/>
</g>
</svg>
